<?xml version="1.0" encoding="UTF-8" standalone="no"?>
<!DOCTYPE svg PUBLIC "-//W3C//DTD SVG 1.1//EN"
 "http://www.w3.org/Graphics/SVG/1.1/DTD/svg11.dtd">
<!-- Generated by graphviz version 2.36.0 (20140111.2315)
 -->
<!-- Title: /home/travis/build/robotology/human&#45;dynamics&#45;estimation/inverse&#45;kinematics/src/InverseKinematicsIPOPT.cpp Pages: 1 -->
<svg width="1467pt" height="174pt"
 viewBox="0.00 0.00 1467.00 174.00" xmlns="http://www.w3.org/2000/svg" xmlns:xlink="http://www.w3.org/1999/xlink">
<g id="graph0" class="graph" transform="scale(1 1) rotate(0) translate(4 170)">
<title>/home/travis/build/robotology/human&#45;dynamics&#45;estimation/inverse&#45;kinematics/src/InverseKinematicsIPOPT.cpp</title>
<!-- Node1 -->
<g id="node1" class="node"><title>Node1</title>
<polygon fill="#bfbfbf" stroke="black" points="971,-113 971,-165 1137,-165 1137,-113 971,-113"/>
<text text-anchor="start" x="979" y="-153" font-family="Helvetica,sans-Serif" font-size="10.00">/home/travis/build</text>
<text text-anchor="start" x="979" y="-142" font-family="Helvetica,sans-Serif" font-size="10.00">/robotology/human&#45;dynamics</text>
<text text-anchor="start" x="979" y="-131" font-family="Helvetica,sans-Serif" font-size="10.00">&#45;estimation/inverse&#45;kinematics</text>
<text text-anchor="middle" x="1054" y="-120" font-family="Helvetica,sans-Serif" font-size="10.00">/src/InverseKinematicsIPOPT.cpp</text>
</g>
<!-- Node2 -->
<g id="node2" class="node"><title>Node2</title>
<g id="a_node2"><a xlink:href="_inverse_kinematics_i_p_o_p_t_8h.html" target="_top" xlink:title="InverseKinematicsIPOPT.h">
<polygon fill="none" stroke="black" points="682,-56.5 682,-75.5 818,-75.5 818,-56.5 682,-56.5"/>
<text text-anchor="middle" x="750" y="-63.5" font-family="Helvetica,sans-Serif" font-size="10.00">InverseKinematicsIPOPT.h</text>
</a>
</g>
</g>
<!-- Node1&#45;&gt;Node2 -->
<g id="edge1" class="edge"><title>Node1&#45;&gt;Node2</title>
<path fill="none" stroke="midnightblue" d="M970.931,-118.599C914.754,-105.479 842.64,-88.6363 796.365,-77.8287"/>
<polygon fill="midnightblue" stroke="midnightblue" points="797.147,-74.4171 786.613,-75.551 795.555,-81.2337 797.147,-74.4171"/>
</g>
<!-- Node13 -->
<g id="node13" class="node"><title>Node13</title>
<polygon fill="none" stroke="#bfbfbf" points="836,-56.5 836,-75.5 986,-75.5 986,-56.5 836,-56.5"/>
<text text-anchor="middle" x="911" y="-63.5" font-family="Helvetica,sans-Serif" font-size="10.00">iDynTree/Core/EigenHelpers.h</text>
</g>
<!-- Node1&#45;&gt;Node13 -->
<g id="edge12" class="edge"><title>Node1&#45;&gt;Node13</title>
<path fill="none" stroke="midnightblue" d="M1003.58,-112.968C981.261,-101.885 955.927,-89.3062 937.409,-80.1123"/>
<polygon fill="midnightblue" stroke="midnightblue" points="938.913,-76.9511 928.399,-75.6389 935.8,-83.2209 938.913,-76.9511"/>
</g>
<!-- Node14 -->
<g id="node14" class="node"><title>Node14</title>
<polygon fill="none" stroke="#bfbfbf" points="1003.5,-56.5 1003.5,-75.5 1044.5,-75.5 1044.5,-56.5 1003.5,-56.5"/>
<text text-anchor="middle" x="1024" y="-63.5" font-family="Helvetica,sans-Serif" font-size="10.00">string</text>
</g>
<!-- Node1&#45;&gt;Node14 -->
<g id="edge13" class="edge"><title>Node1&#45;&gt;Node14</title>
<path fill="none" stroke="midnightblue" d="M1043.34,-112.768C1039.46,-103.587 1035.16,-93.4034 1031.6,-84.9775"/>
<polygon fill="midnightblue" stroke="midnightblue" points="1034.82,-83.6063 1027.7,-75.7572 1028.37,-86.3309 1034.82,-83.6063"/>
</g>
<!-- Node15 -->
<g id="node15" class="node"><title>Node15</title>
<polygon fill="none" stroke="#bfbfbf" points="1063,-56.5 1063,-75.5 1107,-75.5 1107,-56.5 1063,-56.5"/>
<text text-anchor="middle" x="1085" y="-63.5" font-family="Helvetica,sans-Serif" font-size="10.00">vector</text>
</g>
<!-- Node1&#45;&gt;Node15 -->
<g id="edge14" class="edge"><title>Node1&#45;&gt;Node15</title>
<path fill="none" stroke="midnightblue" d="M1065.02,-112.768C1069.03,-103.587 1073.47,-93.4034 1077.15,-84.9775"/>
<polygon fill="midnightblue" stroke="midnightblue" points="1080.38,-86.3222 1081.18,-75.7572 1073.97,-83.5212 1080.38,-86.3222"/>
</g>
<!-- Node16 -->
<g id="node16" class="node"><title>Node16</title>
<polygon fill="none" stroke="#bfbfbf" points="1125,-56.5 1125,-75.5 1169,-75.5 1169,-56.5 1125,-56.5"/>
<text text-anchor="middle" x="1147" y="-63.5" font-family="Helvetica,sans-Serif" font-size="10.00">cmath</text>
</g>
<!-- Node1&#45;&gt;Node16 -->
<g id="edge15" class="edge"><title>Node1&#45;&gt;Node16</title>
<path fill="none" stroke="midnightblue" d="M1086.79,-112.968C1100.29,-102.66 1115.49,-91.0589 1127.23,-82.09"/>
<polygon fill="midnightblue" stroke="midnightblue" points="1129.64,-84.6597 1135.46,-75.8095 1125.39,-79.0958 1129.64,-84.6597"/>
</g>
<!-- Node17 -->
<g id="node17" class="node"><title>Node17</title>
<polygon fill="none" stroke="#bfbfbf" points="1187.5,-56.5 1187.5,-75.5 1236.5,-75.5 1236.5,-56.5 1187.5,-56.5"/>
<text text-anchor="middle" x="1212" y="-63.5" font-family="Helvetica,sans-Serif" font-size="10.00">cassert</text>
</g>
<!-- Node1&#45;&gt;Node17 -->
<g id="edge16" class="edge"><title>Node1&#45;&gt;Node17</title>
<path fill="none" stroke="midnightblue" d="M1109.7,-112.968C1134.6,-101.783 1162.87,-89.0753 1183.38,-79.8601"/>
<polygon fill="midnightblue" stroke="midnightblue" points="1185.09,-82.9303 1192.78,-75.6389 1182.22,-76.5453 1185.09,-82.9303"/>
</g>
<!-- Node3 -->
<g id="node3" class="node"><title>Node3</title>
<polygon fill="none" stroke="#bfbfbf" points="-0.5,-0.5 -0.5,-19.5 68.5,-19.5 68.5,-0.5 -0.5,-0.5"/>
<text text-anchor="middle" x="34" y="-7.5" font-family="Helvetica,sans-Serif" font-size="10.00">IpTNLP.hpp</text>
</g>
<!-- Node2&#45;&gt;Node3 -->
<g id="edge2" class="edge"><title>Node2&#45;&gt;Node3</title>
<path fill="none" stroke="midnightblue" d="M681.858,-63.5828C561.768,-60.398 304.52,-50.5018 78.7108,-20.0594"/>
<polygon fill="midnightblue" stroke="midnightblue" points="79.0428,-16.5724 68.6614,-18.688 78.0963,-23.5081 79.0428,-16.5724"/>
</g>
<!-- Node4 -->
<g id="node4" class="node"><title>Node4</title>
<polygon fill="none" stroke="#bfbfbf" points="86.5,-0.5 86.5,-19.5 239.5,-19.5 239.5,-0.5 86.5,-0.5"/>
<text text-anchor="middle" x="163" y="-7.5" font-family="Helvetica,sans-Serif" font-size="10.00">iDynTree/Core/VectorFixSize.h</text>
</g>
<!-- Node2&#45;&gt;Node4 -->
<g id="edge3" class="edge"><title>Node2&#45;&gt;Node4</title>
<path fill="none" stroke="midnightblue" d="M681.901,-59.2026C587.471,-51.0924 411.136,-35.6913 249.989,-20.0835"/>
<polygon fill="midnightblue" stroke="midnightblue" points="250.18,-16.5857 239.888,-19.103 249.503,-23.5529 250.18,-16.5857"/>
</g>
<!-- Node5 -->
<g id="node5" class="node"><title>Node5</title>
<polygon fill="none" stroke="#bfbfbf" points="258,-0.5 258,-19.5 416,-19.5 416,-0.5 258,-0.5"/>
<text text-anchor="middle" x="337" y="-7.5" font-family="Helvetica,sans-Serif" font-size="10.00">iDynTree/Core/VectorDynSize.h</text>
</g>
<!-- Node2&#45;&gt;Node5 -->
<g id="edge4" class="edge"><title>Node2&#45;&gt;Node5</title>
<path fill="none" stroke="midnightblue" d="M684.559,-56.4435C610.549,-46.7666 490.232,-31.0351 412.359,-20.8533"/>
<polygon fill="midnightblue" stroke="midnightblue" points="412.504,-17.3425 402.135,-19.5164 411.597,-24.2834 412.504,-17.3425"/>
</g>
<!-- Node6 -->
<g id="node6" class="node"><title>Node6</title>
<polygon fill="none" stroke="#bfbfbf" points="434,-0.5 434,-19.5 590,-19.5 590,-0.5 434,-0.5"/>
<text text-anchor="middle" x="512" y="-7.5" font-family="Helvetica,sans-Serif" font-size="10.00">iDynTree/Core/MatrixDynSize.h</text>
</g>
<!-- Node2&#45;&gt;Node6 -->
<g id="edge5" class="edge"><title>Node2&#45;&gt;Node6</title>
<path fill="none" stroke="midnightblue" d="M712.288,-56.4435C670.857,-47.0431 604.243,-31.9291 559.333,-21.7393"/>
<polygon fill="midnightblue" stroke="midnightblue" points="560.062,-18.3159 549.535,-19.5164 558.513,-25.1424 560.062,-18.3159"/>
</g>
<!-- Node7 -->
<g id="node7" class="node"><title>Node7</title>
<polygon fill="none" stroke="#bfbfbf" points="608,-0.5 608,-19.5 744,-19.5 744,-0.5 608,-0.5"/>
<text text-anchor="middle" x="676" y="-7.5" font-family="Helvetica,sans-Serif" font-size="10.00">iDynTree/Core/Transform.h</text>
</g>
<!-- Node2&#45;&gt;Node7 -->
<g id="edge6" class="edge"><title>Node2&#45;&gt;Node7</title>
<path fill="none" stroke="midnightblue" d="M738.111,-56.324C726.85,-48.1066 709.713,-35.6017 696.291,-25.8069"/>
<polygon fill="midnightblue" stroke="midnightblue" points="698.247,-22.9014 688.106,-19.8339 694.12,-28.5559 698.247,-22.9014"/>
</g>
<!-- Node8 -->
<g id="node8" class="node"><title>Node8</title>
<polygon fill="none" stroke="#bfbfbf" points="762.5,-0.5 762.5,-19.5 885.5,-19.5 885.5,-0.5 762.5,-0.5"/>
<text text-anchor="middle" x="824" y="-7.5" font-family="Helvetica,sans-Serif" font-size="10.00">iDynTree/Model/Model.h</text>
</g>
<!-- Node2&#45;&gt;Node8 -->
<g id="edge7" class="edge"><title>Node2&#45;&gt;Node8</title>
<path fill="none" stroke="midnightblue" d="M761.889,-56.324C773.15,-48.1066 790.287,-35.6017 803.709,-25.8069"/>
<polygon fill="midnightblue" stroke="midnightblue" points="805.88,-28.5559 811.894,-19.8339 801.753,-22.9014 805.88,-28.5559"/>
</g>
<!-- Node9 -->
<g id="node9" class="node"><title>Node9</title>
<polygon fill="none" stroke="#bfbfbf" points="903.5,-0.5 903.5,-19.5 1066.5,-19.5 1066.5,-0.5 903.5,-0.5"/>
<text text-anchor="middle" x="985" y="-7.5" font-family="Helvetica,sans-Serif" font-size="10.00">iDynTree/ModelIO/ModelLoader.h</text>
</g>
<!-- Node2&#45;&gt;Node9 -->
<g id="edge8" class="edge"><title>Node2&#45;&gt;Node9</title>
<path fill="none" stroke="midnightblue" d="M787.236,-56.4435C828.06,-47.0629 893.643,-31.9926 937.984,-21.8036"/>
<polygon fill="midnightblue" stroke="midnightblue" points="938.976,-25.1671 947.938,-19.5164 937.408,-18.3449 938.976,-25.1671"/>
</g>
<!-- Node10 -->
<g id="node10" class="node"><title>Node10</title>
<polygon fill="none" stroke="#bfbfbf" points="1084.5,-0.5 1084.5,-19.5 1245.5,-19.5 1245.5,-0.5 1084.5,-0.5"/>
<text text-anchor="middle" x="1165" y="-7.5" font-family="Helvetica,sans-Serif" font-size="10.00">iDynTree/KinDynComputations.h</text>
</g>
<!-- Node2&#45;&gt;Node10 -->
<g id="edge9" class="edge"><title>Node2&#45;&gt;Node10</title>
<path fill="none" stroke="midnightblue" d="M815.758,-56.4435C890.127,-46.7666 1011.03,-31.0351 1089.28,-20.8533"/>
<polygon fill="midnightblue" stroke="midnightblue" points="1090.08,-24.2776 1099.55,-19.5164 1089.18,-17.3361 1090.08,-24.2776"/>
</g>
<!-- Node11 -->
<g id="node11" class="node"><title>Node11</title>
<polygon fill="none" stroke="#bfbfbf" points="1263.5,-0.5 1263.5,-19.5 1376.5,-19.5 1376.5,-0.5 1263.5,-0.5"/>
<text text-anchor="middle" x="1320" y="-7.5" font-family="Helvetica,sans-Serif" font-size="10.00">IpIpoptApplication.hpp</text>
</g>
<!-- Node2&#45;&gt;Node11 -->
<g id="edge10" class="edge"><title>Node2&#45;&gt;Node11</title>
<path fill="none" stroke="midnightblue" d="M818.007,-56.9306C821.045,-56.6081 824.054,-56.2963 827,-56 1013.26,-37.2682 1063.01,-40.7455 1253.44,-20.0034"/>
<polygon fill="midnightblue" stroke="midnightblue" points="1253.94,-23.4693 1263.5,-18.8993 1253.18,-16.511 1253.94,-23.4693"/>
</g>
<!-- Node12 -->
<g id="node12" class="node"><title>Node12</title>
<polygon fill="none" stroke="#bfbfbf" points="1394.5,-0.5 1394.5,-19.5 1459.5,-19.5 1459.5,-0.5 1394.5,-0.5"/>
<text text-anchor="middle" x="1427" y="-7.5" font-family="Helvetica,sans-Serif" font-size="10.00">Eigen/Core</text>
</g>
<!-- Node2&#45;&gt;Node12 -->
<g id="edge11" class="edge"><title>Node2&#45;&gt;Node12</title>
<path fill="none" stroke="midnightblue" d="M818,-56.8579C821.04,-56.5551 824.051,-56.2673 827,-56 1071.24,-33.8628 1137.11,-53.5927 1384.07,-19.9133"/>
<polygon fill="midnightblue" stroke="midnightblue" points="1384.64,-23.3682 1394.07,-18.5346 1383.68,-16.4339 1384.64,-23.3682"/>
</g>
</g>
</svg>
