<?xml version="1.0" encoding="UTF-8" standalone="no"?>
<!DOCTYPE svg PUBLIC "-//W3C//DTD SVG 1.1//EN"
 "http://www.w3.org/Graphics/SVG/1.1/DTD/svg11.dtd">
<!-- Generated by graphviz version 2.36.0 (20140111.2315)
 -->
<!-- Title: /home/travis/build/robotology/human&#45;dynamics&#45;estimation/human&#45;viz&#45;bridge/src/RobotBasePosePublisher.cpp Pages: 1 -->
<svg width="4016pt" height="286pt"
 viewBox="0.00 0.00 4016.00 286.00" xmlns="http://www.w3.org/2000/svg" xmlns:xlink="http://www.w3.org/1999/xlink">
<g id="graph0" class="graph" transform="scale(1 1) rotate(0) translate(4 282)">
<title>/home/travis/build/robotology/human&#45;dynamics&#45;estimation/human&#45;viz&#45;bridge/src/RobotBasePosePublisher.cpp</title>
<!-- Node1 -->
<g id="node1" class="node"><title>Node1</title>
<polygon fill="#bfbfbf" stroke="black" points="2313.5,-225 2313.5,-277 2480.5,-277 2480.5,-225 2313.5,-225"/>
<text text-anchor="start" x="2321.5" y="-265" font-family="Helvetica,sans-Serif" font-size="10.00">/home/travis/build</text>
<text text-anchor="start" x="2321.5" y="-254" font-family="Helvetica,sans-Serif" font-size="10.00">/robotology/human&#45;dynamics</text>
<text text-anchor="start" x="2321.5" y="-243" font-family="Helvetica,sans-Serif" font-size="10.00">&#45;estimation/human&#45;viz&#45;bridge</text>
<text text-anchor="middle" x="2397" y="-232" font-family="Helvetica,sans-Serif" font-size="10.00">/src/RobotBasePosePublisher.cpp</text>
</g>
<!-- Node2 -->
<g id="node2" class="node"><title>Node2</title>
<polygon fill="none" stroke="#bfbfbf" points="-0.5,-168.5 -0.5,-187.5 146.5,-187.5 146.5,-168.5 -0.5,-168.5"/>
<text text-anchor="middle" x="73" y="-175.5" font-family="Helvetica,sans-Serif" font-size="10.00">geometry_msgs_Quaternion.h</text>
</g>
<!-- Node1&#45;&gt;Node2 -->
<g id="edge1" class="edge"><title>Node1&#45;&gt;Node2</title>
<path fill="none" stroke="midnightblue" d="M2313.41,-250.147C2019.24,-250.145 1004.26,-245.723 157.004,-188.082"/>
<polygon fill="midnightblue" stroke="midnightblue" points="156.947,-184.57 146.732,-187.38 156.47,-191.554 156.947,-184.57"/>
</g>
<!-- Node3 -->
<g id="node3" class="node"><title>Node3</title>
<polygon fill="none" stroke="#bfbfbf" points="164.5,-168.5 164.5,-187.5 347.5,-187.5 347.5,-168.5 164.5,-168.5"/>
<text text-anchor="middle" x="256" y="-175.5" font-family="Helvetica,sans-Serif" font-size="10.00">geometry_msgs_TransformStamped.h</text>
</g>
<!-- Node1&#45;&gt;Node3 -->
<g id="edge2" class="edge"><title>Node1&#45;&gt;Node3</title>
<path fill="none" stroke="midnightblue" d="M2313.36,-249.211C2036.41,-246.226 1123.76,-233.406 357.775,-188.005"/>
<polygon fill="midnightblue" stroke="midnightblue" points="357.831,-184.502 347.641,-187.402 357.415,-191.49 357.831,-184.502"/>
</g>
<!-- Node4 -->
<g id="node4" class="node"><title>Node4</title>
<polygon fill="none" stroke="#bfbfbf" points="366,-168.5 366,-187.5 500,-187.5 500,-168.5 366,-168.5"/>
<text text-anchor="middle" x="433" y="-175.5" font-family="Helvetica,sans-Serif" font-size="10.00">geometry_msgs_Vector3.h</text>
</g>
<!-- Node1&#45;&gt;Node4 -->
<g id="edge3" class="edge"><title>Node1&#45;&gt;Node4</title>
<path fill="none" stroke="midnightblue" d="M2313.17,-249.739C2049.5,-248.389 1213.43,-240.054 510.242,-187.935"/>
<polygon fill="midnightblue" stroke="midnightblue" points="510.392,-184.437 500.16,-187.184 509.872,-191.418 510.392,-184.437"/>
</g>
<!-- Node5 -->
<g id="node5" class="node"><title>Node5</title>
<polygon fill="none" stroke="#bfbfbf" points="518.5,-168.5 518.5,-187.5 595.5,-187.5 595.5,-168.5 518.5,-168.5"/>
<text text-anchor="middle" x="557" y="-175.5" font-family="Helvetica,sans-Serif" font-size="10.00">msgs/String.h</text>
</g>
<!-- Node1&#45;&gt;Node5 -->
<g id="edge4" class="edge"><title>Node1&#45;&gt;Node5</title>
<path fill="none" stroke="midnightblue" d="M2313.36,-248.781C2009.36,-244.092 962.745,-225.626 605.799,-187.868"/>
<polygon fill="midnightblue" stroke="midnightblue" points="606.016,-184.371 595.698,-186.774 605.262,-191.331 606.016,-184.371"/>
</g>
<!-- Node6 -->
<g id="node6" class="node"><title>Node6</title>
<polygon fill="none" stroke="#bfbfbf" points="613.5,-168.5 613.5,-187.5 746.5,-187.5 746.5,-168.5 613.5,-168.5"/>
<text text-anchor="middle" x="680" y="-175.5" font-family="Helvetica,sans-Serif" font-size="10.00">sensor_msgs_JointState.h</text>
</g>
<!-- Node1&#45;&gt;Node6 -->
<g id="edge5" class="edge"><title>Node1&#45;&gt;Node6</title>
<path fill="none" stroke="midnightblue" d="M2313.18,-249.202C2072.68,-246.406 1359.54,-234.566 756.897,-187.997"/>
<polygon fill="midnightblue" stroke="midnightblue" points="756.939,-184.49 746.698,-187.205 756.397,-191.469 756.939,-184.49"/>
</g>
<!-- Node7 -->
<g id="node7" class="node"><title>Node7</title>
<polygon fill="none" stroke="#bfbfbf" points="765,-168.5 765,-187.5 869,-187.5 869,-168.5 765,-168.5"/>
<text text-anchor="middle" x="817" y="-175.5" font-family="Helvetica,sans-Serif" font-size="10.00">std_msgs_Header.h</text>
</g>
<!-- Node1&#45;&gt;Node7 -->
<g id="edge6" class="edge"><title>Node1&#45;&gt;Node7</title>
<path fill="none" stroke="midnightblue" d="M2313.22,-249.684C2084.76,-248.156 1431.63,-239.347 879.362,-188.022"/>
<polygon fill="midnightblue" stroke="midnightblue" points="879.482,-184.518 869.199,-187.072 878.83,-191.488 879.482,-184.518"/>
</g>
<!-- Node8 -->
<g id="node8" class="node"><title>Node8</title>
<polygon fill="none" stroke="#bfbfbf" points="887,-168.5 887,-187.5 1009,-187.5 1009,-168.5 887,-168.5"/>
<text text-anchor="middle" x="948" y="-175.5" font-family="Helvetica,sans-Serif" font-size="10.00">tf2_msgs_TFMessage.h</text>
</g>
<!-- Node1&#45;&gt;Node8 -->
<g id="edge7" class="edge"><title>Node1&#45;&gt;Node8</title>
<path fill="none" stroke="midnightblue" d="M2313.35,-248.599C2099.72,-244.512 1516.48,-230.159 1019.41,-187.948"/>
<polygon fill="midnightblue" stroke="midnightblue" points="1019.42,-184.436 1009.16,-187.072 1018.82,-191.411 1019.42,-184.436"/>
</g>
<!-- Node9 -->
<g id="node9" class="node"><title>Node9</title>
<g id="a_node9"><a xlink:href="autogenerated_2include_2thrifts_2_human_state_8h.html" target="_top" xlink:title="thrifts/HumanState.h">
<polygon fill="none" stroke="black" points="1027.5,-168.5 1027.5,-187.5 1134.5,-187.5 1134.5,-168.5 1027.5,-168.5"/>
<text text-anchor="middle" x="1081" y="-175.5" font-family="Helvetica,sans-Serif" font-size="10.00">thrifts/HumanState.h</text>
</a>
</g>
</g>
<!-- Node1&#45;&gt;Node9 -->
<g id="edge8" class="edge"><title>Node1&#45;&gt;Node9</title>
<path fill="none" stroke="midnightblue" d="M2313.22,-248.528C2113.04,-244.434 1591.01,-230.346 1144.77,-187.972"/>
<polygon fill="midnightblue" stroke="midnightblue" points="1144.86,-184.465 1134.58,-186.997 1144.2,-191.433 1144.86,-184.465"/>
</g>
<!-- Node15 -->
<g id="node15" class="node"><title>Node15</title>
<polygon fill="none" stroke="#bfbfbf" points="1152.5,-168.5 1152.5,-187.5 1315.5,-187.5 1315.5,-168.5 1152.5,-168.5"/>
<text text-anchor="middle" x="1234" y="-175.5" font-family="Helvetica,sans-Serif" font-size="10.00">iDynTree/ModelIO/ModelLoader.h</text>
</g>
<!-- Node1&#45;&gt;Node15 -->
<g id="edge19" class="edge"><title>Node1&#45;&gt;Node15</title>
<path fill="none" stroke="midnightblue" d="M2313.18,-246.318C2134.1,-238.198 1700.68,-217.192 1326.07,-188.052"/>
<polygon fill="midnightblue" stroke="midnightblue" points="1326.08,-184.542 1315.84,-187.253 1325.54,-191.521 1326.08,-184.542"/>
</g>
<!-- Node16 -->
<g id="node16" class="node"><title>Node16</title>
<polygon fill="none" stroke="#bfbfbf" points="1334,-168.5 1334,-187.5 1470,-187.5 1470,-168.5 1334,-168.5"/>
<text text-anchor="middle" x="1402" y="-175.5" font-family="Helvetica,sans-Serif" font-size="10.00">iDynTree/Core/Transform.h</text>
</g>
<!-- Node1&#45;&gt;Node16 -->
<g id="edge20" class="edge"><title>Node1&#45;&gt;Node16</title>
<path fill="none" stroke="midnightblue" d="M2313.45,-245.679C2152.14,-237.043 1786.68,-216.045 1480,-188 1479.9,-187.991 1479.8,-187.981 1479.69,-187.972"/>
<polygon fill="midnightblue" stroke="midnightblue" points="1480.33,-184.517 1470.04,-187.043 1479.66,-191.485 1480.33,-184.517"/>
</g>
<!-- Node17 -->
<g id="node17" class="node"><title>Node17</title>
<polygon fill="none" stroke="#bfbfbf" points="1488.5,-168.5 1488.5,-187.5 1615.5,-187.5 1615.5,-168.5 1488.5,-168.5"/>
<text text-anchor="middle" x="1552" y="-175.5" font-family="Helvetica,sans-Serif" font-size="10.00">iDynTree/Core/Position.h</text>
</g>
<!-- Node1&#45;&gt;Node17 -->
<g id="edge21" class="edge"><title>Node1&#45;&gt;Node17</title>
<path fill="none" stroke="midnightblue" d="M2313.5,-244.463C2173.64,-234.93 1882.94,-214.014 1625.96,-188.056"/>
<polygon fill="midnightblue" stroke="midnightblue" points="1625.99,-184.54 1615.68,-187.013 1625.28,-191.505 1625.99,-184.54"/>
</g>
<!-- Node18 -->
<g id="node18" class="node"><title>Node18</title>
<polygon fill="none" stroke="#bfbfbf" points="1634,-168.5 1634,-187.5 1762,-187.5 1762,-168.5 1634,-168.5"/>
<text text-anchor="middle" x="1698" y="-175.5" font-family="Helvetica,sans-Serif" font-size="10.00">iDynTree/Core/Rotation.h</text>
</g>
<!-- Node1&#45;&gt;Node18 -->
<g id="edge22" class="edge"><title>Node1&#45;&gt;Node18</title>
<path fill="none" stroke="midnightblue" d="M2313.4,-242.362C2195.29,-231.427 1972.57,-210.282 1772.21,-188.112"/>
<polygon fill="midnightblue" stroke="midnightblue" points="1772.41,-184.613 1762.08,-186.989 1771.64,-191.57 1772.41,-184.613"/>
</g>
<!-- Node19 -->
<g id="node19" class="node"><title>Node19</title>
<polygon fill="none" stroke="#bfbfbf" points="1780,-168.5 1780,-187.5 1930,-187.5 1930,-168.5 1780,-168.5"/>
<text text-anchor="middle" x="1855" y="-175.5" font-family="Helvetica,sans-Serif" font-size="10.00">iDynTree/Core/EigenHelpers.h</text>
</g>
<!-- Node1&#45;&gt;Node19 -->
<g id="edge23" class="edge"><title>Node1&#45;&gt;Node19</title>
<path fill="none" stroke="midnightblue" d="M2313.2,-239.023C2208.49,-225.306 2030.86,-202.037 1930.29,-188.863"/>
<polygon fill="midnightblue" stroke="midnightblue" points="1930.58,-185.37 1920.21,-187.542 1929.67,-192.311 1930.58,-185.37"/>
</g>
<!-- Node20 -->
<g id="node20" class="node"><title>Node20</title>
<polygon fill="none" stroke="#bfbfbf" points="1948.5,-168.5 1948.5,-187.5 2109.5,-187.5 2109.5,-168.5 1948.5,-168.5"/>
<text text-anchor="middle" x="2029" y="-175.5" font-family="Helvetica,sans-Serif" font-size="10.00">iDynTree/KinDynComputations.h</text>
</g>
<!-- Node1&#45;&gt;Node20 -->
<g id="edge24" class="edge"><title>Node1&#45;&gt;Node20</title>
<path fill="none" stroke="midnightblue" d="M2313.5,-233.889C2242.93,-220.275 2143.92,-201.173 2083.25,-189.466"/>
<polygon fill="midnightblue" stroke="midnightblue" points="2083.6,-185.969 2073.12,-187.511 2082.27,-192.842 2083.6,-185.969"/>
</g>
<!-- Node21 -->
<g id="node21" class="node"><title>Node21</title>
<polygon fill="none" stroke="#bfbfbf" points="2127.5,-168.5 2127.5,-187.5 2192.5,-187.5 2192.5,-168.5 2127.5,-168.5"/>
<text text-anchor="middle" x="2160" y="-175.5" font-family="Helvetica,sans-Serif" font-size="10.00">TickTime.h</text>
</g>
<!-- Node1&#45;&gt;Node21 -->
<g id="edge25" class="edge"><title>Node1&#45;&gt;Node21</title>
<path fill="none" stroke="midnightblue" d="M2313.44,-224.968C2274.29,-213.239 2229.55,-199.835 2198.52,-190.54"/>
<polygon fill="midnightblue" stroke="midnightblue" points="2199.14,-187.071 2188.55,-187.554 2197.13,-193.777 2199.14,-187.071"/>
</g>
<!-- Node22 -->
<g id="node22" class="node"><title>Node22</title>
<polygon fill="none" stroke="#bfbfbf" points="2210.5,-168.5 2210.5,-187.5 2325.5,-187.5 2325.5,-168.5 2210.5,-168.5"/>
<text text-anchor="middle" x="2268" y="-175.5" font-family="Helvetica,sans-Serif" font-size="10.00">yarp/os/BufferedPort.h</text>
</g>
<!-- Node1&#45;&gt;Node22 -->
<g id="edge26" class="edge"><title>Node1&#45;&gt;Node22</title>
<path fill="none" stroke="midnightblue" d="M2351.52,-224.968C2331.75,-214.088 2309.37,-201.767 2292.75,-192.622"/>
<polygon fill="midnightblue" stroke="midnightblue" points="2294.14,-189.394 2283.7,-187.639 2290.77,-195.527 2294.14,-189.394"/>
</g>
<!-- Node23 -->
<g id="node23" class="node"><title>Node23</title>
<polygon fill="none" stroke="#bfbfbf" points="2343.5,-168.5 2343.5,-187.5 2450.5,-187.5 2450.5,-168.5 2343.5,-168.5"/>
<text text-anchor="middle" x="2397" y="-175.5" font-family="Helvetica,sans-Serif" font-size="10.00">yarp/os/LogStream.h</text>
</g>
<!-- Node1&#45;&gt;Node23 -->
<g id="edge27" class="edge"><title>Node1&#45;&gt;Node23</title>
<path fill="none" stroke="midnightblue" d="M2397,-224.768C2397,-215.89 2397,-206.074 2397,-197.816"/>
<polygon fill="midnightblue" stroke="midnightblue" points="2400.5,-197.757 2397,-187.757 2393.5,-197.757 2400.5,-197.757"/>
</g>
<!-- Node24 -->
<g id="node24" class="node"><title>Node24</title>
<polygon fill="none" stroke="#bfbfbf" points="2468.5,-168.5 2468.5,-187.5 2565.5,-187.5 2565.5,-168.5 2468.5,-168.5"/>
<text text-anchor="middle" x="2517" y="-175.5" font-family="Helvetica,sans-Serif" font-size="10.00">yarp/os/Network.h</text>
</g>
<!-- Node1&#45;&gt;Node24 -->
<g id="edge28" class="edge"><title>Node1&#45;&gt;Node24</title>
<path fill="none" stroke="midnightblue" d="M2439.31,-224.968C2457.52,-214.19 2478.13,-201.997 2493.54,-192.879"/>
<polygon fill="midnightblue" stroke="midnightblue" points="2495.57,-195.743 2502.4,-187.639 2492.01,-189.719 2495.57,-195.743"/>
</g>
<!-- Node25 -->
<g id="node25" class="node"><title>Node25</title>
<polygon fill="none" stroke="#bfbfbf" points="2583.5,-168.5 2583.5,-187.5 2666.5,-187.5 2666.5,-168.5 2583.5,-168.5"/>
<text text-anchor="middle" x="2625" y="-175.5" font-family="Helvetica,sans-Serif" font-size="10.00">yarp/os/Node.h</text>
</g>
<!-- Node1&#45;&gt;Node25 -->
<g id="edge29" class="edge"><title>Node1&#45;&gt;Node25</title>
<path fill="none" stroke="midnightblue" d="M2477.38,-224.968C2515.05,-213.239 2558.09,-199.835 2587.94,-190.54"/>
<polygon fill="midnightblue" stroke="midnightblue" points="2589.02,-193.869 2597.53,-187.554 2586.94,-187.186 2589.02,-193.869"/>
</g>
<!-- Node26 -->
<g id="node26" class="node"><title>Node26</title>
<polygon fill="none" stroke="#bfbfbf" points="2684.5,-168.5 2684.5,-187.5 2781.5,-187.5 2781.5,-168.5 2684.5,-168.5"/>
<text text-anchor="middle" x="2733" y="-175.5" font-family="Helvetica,sans-Serif" font-size="10.00">yarp/os/Property.h</text>
</g>
<!-- Node1&#45;&gt;Node26 -->
<g id="edge30" class="edge"><title>Node1&#45;&gt;Node26</title>
<path fill="none" stroke="midnightblue" d="M2480.92,-232.267C2544.29,-218.877 2629.15,-200.944 2682.45,-189.681"/>
<polygon fill="midnightblue" stroke="midnightblue" points="2683.29,-193.082 2692.35,-187.59 2681.84,-186.233 2683.29,-193.082"/>
</g>
<!-- Node27 -->
<g id="node27" class="node"><title>Node27</title>
<polygon fill="none" stroke="#bfbfbf" points="2799.5,-168.5 2799.5,-187.5 2900.5,-187.5 2900.5,-168.5 2799.5,-168.5"/>
<text text-anchor="middle" x="2850" y="-175.5" font-family="Helvetica,sans-Serif" font-size="10.00">yarp/os/Publisher.h</text>
</g>
<!-- Node1&#45;&gt;Node27 -->
<g id="edge31" class="edge"><title>Node1&#45;&gt;Node27</title>
<path fill="none" stroke="midnightblue" d="M2480.62,-236.895C2569.92,-222.898 2709.31,-201.052 2788.87,-188.581"/>
<polygon fill="midnightblue" stroke="midnightblue" points="2789.88,-191.966 2799.21,-186.96 2788.79,-185.051 2789.88,-191.966"/>
</g>
<!-- Node28 -->
<g id="node28" class="node"><title>Node28</title>
<polygon fill="none" stroke="#bfbfbf" points="2918.5,-168.5 2918.5,-187.5 3023.5,-187.5 3023.5,-168.5 2918.5,-168.5"/>
<text text-anchor="middle" x="2971" y="-175.5" font-family="Helvetica,sans-Serif" font-size="10.00">yarp/os/RFModule.h</text>
</g>
<!-- Node1&#45;&gt;Node28 -->
<g id="edge32" class="edge"><title>Node1&#45;&gt;Node28</title>
<path fill="none" stroke="midnightblue" d="M2480.89,-240.458C2580.18,-229.025 2750.81,-208.941 2907.92,-188.117"/>
<polygon fill="midnightblue" stroke="midnightblue" points="2908.79,-191.531 2918.25,-186.744 2907.87,-184.592 2908.79,-191.531"/>
</g>
<!-- Node29 -->
<g id="node29" class="node"><title>Node29</title>
<polygon fill="none" stroke="#bfbfbf" points="3042,-168.5 3042,-187.5 3124,-187.5 3124,-168.5 3042,-168.5"/>
<text text-anchor="middle" x="3083" y="-175.5" font-family="Helvetica,sans-Serif" font-size="10.00">yarp/os/Time.h</text>
</g>
<!-- Node1&#45;&gt;Node29 -->
<g id="edge33" class="edge"><title>Node1&#45;&gt;Node29</title>
<path fill="none" stroke="midnightblue" d="M2480.7,-243.902C2600.44,-234.716 2827.67,-215.568 3031.84,-187.91"/>
<polygon fill="midnightblue" stroke="midnightblue" points="3032.41,-191.363 3041.85,-186.544 3031.47,-184.428 3032.41,-191.363"/>
</g>
<!-- Node30 -->
<g id="node30" class="node"><title>Node30</title>
<polygon fill="none" stroke="#bfbfbf" points="3142.5,-168.5 3142.5,-187.5 3229.5,-187.5 3229.5,-168.5 3142.5,-168.5"/>
<text text-anchor="middle" x="3186" y="-175.5" font-family="Helvetica,sans-Serif" font-size="10.00">yarp/os/Mutex.h</text>
</g>
<!-- Node1&#45;&gt;Node30 -->
<g id="edge34" class="edge"><title>Node1&#45;&gt;Node30</title>
<path fill="none" stroke="midnightblue" d="M2480.57,-245.258C2615.47,-237.095 2889.71,-218.401 3132.3,-187.98"/>
<polygon fill="midnightblue" stroke="midnightblue" points="3132.89,-191.434 3142.37,-186.708 3132.01,-184.489 3132.89,-191.434"/>
</g>
<!-- Node31 -->
<g id="node31" class="node"><title>Node31</title>
<polygon fill="none" stroke="#bfbfbf" points="3247.5,-168.5 3247.5,-187.5 3354.5,-187.5 3354.5,-168.5 3247.5,-168.5"/>
<text text-anchor="middle" x="3301" y="-175.5" font-family="Helvetica,sans-Serif" font-size="10.00">yarp/os/LockGuard.h</text>
</g>
<!-- Node1&#45;&gt;Node31 -->
<g id="edge35" class="edge"><title>Node1&#45;&gt;Node31</title>
<path fill="none" stroke="midnightblue" d="M2480.73,-245.727C2630.37,-237.671 2953.75,-218.372 3237.34,-187.994"/>
<polygon fill="midnightblue" stroke="midnightblue" points="3237.85,-191.46 3247.42,-186.909 3237.1,-184.501 3237.85,-191.46"/>
</g>
<!-- Node32 -->
<g id="node32" class="node"><title>Node32</title>
<polygon fill="none" stroke="#bfbfbf" points="3372.5,-168.5 3372.5,-187.5 3483.5,-187.5 3483.5,-168.5 3372.5,-168.5"/>
<text text-anchor="middle" x="3428" y="-175.5" font-family="Helvetica,sans-Serif" font-size="10.00">yarp/dev/PolyDriver.h</text>
</g>
<!-- Node1&#45;&gt;Node32 -->
<g id="edge36" class="edge"><title>Node1&#45;&gt;Node32</title>
<path fill="none" stroke="midnightblue" d="M2480.51,-246.709C2646.41,-239.72 3029.42,-221.33 3362.04,-188.018"/>
<polygon fill="midnightblue" stroke="midnightblue" points="3362.76,-191.463 3372.36,-186.977 3362.06,-184.498 3362.76,-191.463"/>
</g>
<!-- Node33 -->
<g id="node33" class="node"><title>Node33</title>
<polygon fill="none" stroke="#bfbfbf" points="3502,-168.5 3502,-187.5 3612,-187.5 3612,-168.5 3502,-168.5"/>
<text text-anchor="middle" x="3557" y="-175.5" font-family="Helvetica,sans-Serif" font-size="10.00">yarp/dev/IEncoders.h</text>
</g>
<!-- Node1&#45;&gt;Node33 -->
<g id="edge37" class="edge"><title>Node1&#45;&gt;Node33</title>
<path fill="none" stroke="midnightblue" d="M2480.63,-247.577C2662.48,-241.805 3107.67,-224.955 3491.52,-187.954"/>
<polygon fill="midnightblue" stroke="midnightblue" points="3492.1,-191.414 3501.72,-186.965 3491.43,-184.447 3492.1,-191.414"/>
</g>
<!-- Node34 -->
<g id="node34" class="node"><title>Node34</title>
<polygon fill="none" stroke="#bfbfbf" points="3630,-168.5 3630,-187.5 3686,-187.5 3686,-168.5 3630,-168.5"/>
<text text-anchor="middle" x="3658" y="-175.5" font-family="Helvetica,sans-Serif" font-size="10.00">algorithm</text>
</g>
<!-- Node1&#45;&gt;Node34 -->
<g id="edge38" class="edge"><title>Node1&#45;&gt;Node34</title>
<path fill="none" stroke="midnightblue" d="M2480.79,-247.809C2716.15,-241.333 3381,-220.751 3619.8,-187.856"/>
<polygon fill="midnightblue" stroke="midnightblue" points="3620.42,-191.304 3629.83,-186.431 3619.43,-184.374 3620.42,-191.304"/>
</g>
<!-- Node35 -->
<g id="node35" class="node"><title>Node35</title>
<polygon fill="none" stroke="#bfbfbf" points="3704,-168.5 3704,-187.5 3748,-187.5 3748,-168.5 3704,-168.5"/>
<text text-anchor="middle" x="3726" y="-175.5" font-family="Helvetica,sans-Serif" font-size="10.00">cmath</text>
</g>
<!-- Node1&#45;&gt;Node35 -->
<g id="edge39" class="edge"><title>Node1&#45;&gt;Node35</title>
<path fill="none" stroke="midnightblue" d="M2480.94,-248.468C2726.23,-243.605 3439.95,-226.597 3693.84,-187.526"/>
<polygon fill="midnightblue" stroke="midnightblue" points="3694.44,-190.974 3703.76,-185.948 3693.34,-184.061 3694.44,-190.974"/>
</g>
<!-- Node36 -->
<g id="node36" class="node"><title>Node36</title>
<polygon fill="none" stroke="#bfbfbf" points="3766,-168.5 3766,-187.5 3820,-187.5 3820,-168.5 3766,-168.5"/>
<text text-anchor="middle" x="3793" y="-175.5" font-family="Helvetica,sans-Serif" font-size="10.00">iostream</text>
</g>
<!-- Node1&#45;&gt;Node36 -->
<g id="edge40" class="edge"><title>Node1&#45;&gt;Node36</title>
<path fill="none" stroke="midnightblue" d="M2480.77,-248.297C2733.75,-242.823 3488.39,-223.984 3755.57,-187.688"/>
<polygon fill="midnightblue" stroke="midnightblue" points="3756.22,-191.132 3765.64,-186.279 3755.25,-184.2 3756.22,-191.132"/>
</g>
<!-- Node37 -->
<g id="node37" class="node"><title>Node37</title>
<polygon fill="none" stroke="#bfbfbf" points="3838,-168.5 3838,-187.5 3886,-187.5 3886,-168.5 3838,-168.5"/>
<text text-anchor="middle" x="3862" y="-175.5" font-family="Helvetica,sans-Serif" font-size="10.00">limits.h</text>
</g>
<!-- Node1&#45;&gt;Node37 -->
<g id="edge41" class="edge"><title>Node1&#45;&gt;Node37</title>
<path fill="none" stroke="midnightblue" d="M2480.6,-248.827C2742.62,-244.769 3546.58,-229.33 3827.8,-187.768"/>
<polygon fill="midnightblue" stroke="midnightblue" points="3828.63,-191.182 3837.98,-186.215 3827.57,-184.262 3828.63,-191.182"/>
</g>
<!-- Node38 -->
<g id="node38" class="node"><title>Node38</title>
<polygon fill="none" stroke="#bfbfbf" points="3904.5,-168.5 3904.5,-187.5 3945.5,-187.5 3945.5,-168.5 3904.5,-168.5"/>
<text text-anchor="middle" x="3925" y="-175.5" font-family="Helvetica,sans-Serif" font-size="10.00">string</text>
</g>
<!-- Node1&#45;&gt;Node38 -->
<g id="edge42" class="edge"><title>Node1&#45;&gt;Node38</title>
<path fill="none" stroke="midnightblue" d="M2480.63,-249.286C2750.85,-246.553 3599.49,-234.528 3893.94,-187.655"/>
<polygon fill="midnightblue" stroke="midnightblue" points="3894.88,-191.048 3904.18,-185.973 3893.74,-184.14 3894.88,-191.048"/>
</g>
<!-- Node39 -->
<g id="node39" class="node"><title>Node39</title>
<polygon fill="none" stroke="#bfbfbf" points="3964,-168.5 3964,-187.5 4008,-187.5 4008,-168.5 3964,-168.5"/>
<text text-anchor="middle" x="3986" y="-175.5" font-family="Helvetica,sans-Serif" font-size="10.00">vector</text>
</g>
<!-- Node1&#45;&gt;Node39 -->
<g id="edge43" class="edge"><title>Node1&#45;&gt;Node39</title>
<path fill="none" stroke="midnightblue" d="M2480.94,-249.247C2758.53,-246.357 3646.18,-233.805 3953.52,-187.56"/>
<polygon fill="midnightblue" stroke="midnightblue" points="3954.42,-190.962 3963.77,-185.971 3953.35,-184.045 3954.42,-190.962"/>
</g>
<!-- Node10 -->
<g id="node10" class="node"><title>Node10</title>
<polygon fill="none" stroke="#bfbfbf" points="918,-0.5 918,-19.5 998,-19.5 998,-0.5 918,-0.5"/>
<text text-anchor="middle" x="958" y="-7.5" font-family="Helvetica,sans-Serif" font-size="10.00">yarp/os/Wire.h</text>
</g>
<!-- Node9&#45;&gt;Node10 -->
<g id="edge9" class="edge"><title>Node9&#45;&gt;Node10</title>
<path fill="none" stroke="midnightblue" d="M1037.42,-168.463C1001.67,-160.471 955.196,-147.461 944,-132 921.763,-101.29 937.542,-54.2429 948.994,-28.8074"/>
<polygon fill="midnightblue" stroke="midnightblue" points="952.228,-30.1571 953.37,-19.6241 945.908,-27.1458 952.228,-30.1571"/>
</g>
<!-- Node11 -->
<g id="node11" class="node"><title>Node11</title>
<polygon fill="none" stroke="#bfbfbf" points="1016,-0.5 1016,-19.5 1136,-19.5 1136,-0.5 1016,-0.5"/>
<text text-anchor="middle" x="1076" y="-7.5" font-family="Helvetica,sans-Serif" font-size="10.00">yarp/os/idl/WireTypes.h</text>
</g>
<!-- Node9&#45;&gt;Node11 -->
<g id="edge10" class="edge"><title>Node9&#45;&gt;Node11</title>
<path fill="none" stroke="midnightblue" d="M1088.57,-168.338C1105.15,-148.261 1141.81,-97.118 1124,-56 1118.73,-43.8399 1108.38,-33.4594 1098.64,-25.7429"/>
<polygon fill="midnightblue" stroke="midnightblue" points="1100.5,-22.7707 1090.37,-19.6698 1096.36,-28.4116 1100.5,-22.7707"/>
</g>
<!-- Node12 -->
<g id="node12" class="node"><title>Node12</title>
<g id="a_node12"><a xlink:href="human-state-provider_2autogenerated_2include_2thrifts_2_quaternion_8h.html" target="_top" xlink:title="thrifts/Quaternion.h">
<polygon fill="none" stroke="black" points="953,-112.5 953,-131.5 1053,-131.5 1053,-112.5 953,-112.5"/>
<text text-anchor="middle" x="1003" y="-119.5" font-family="Helvetica,sans-Serif" font-size="10.00">thrifts/Quaternion.h</text>
</a>
</g>
</g>
<!-- Node9&#45;&gt;Node12 -->
<g id="edge11" class="edge"><title>Node9&#45;&gt;Node12</title>
<path fill="none" stroke="midnightblue" d="M1068.47,-168.324C1056.41,-159.979 1037.97,-147.212 1023.73,-137.352"/>
<polygon fill="midnightblue" stroke="midnightblue" points="1025.72,-134.469 1015.5,-131.655 1021.73,-140.224 1025.72,-134.469"/>
</g>
<!-- Node13 -->
<g id="node13" class="node"><title>Node13</title>
<g id="a_node13"><a xlink:href="human-state-provider_2autogenerated_2include_2thrifts_2_vector3_8h.html" target="_top" xlink:title="thrifts/Vector3.h">
<polygon fill="none" stroke="black" points="1029,-56.5 1029,-75.5 1115,-75.5 1115,-56.5 1029,-56.5"/>
<text text-anchor="middle" x="1072" y="-63.5" font-family="Helvetica,sans-Serif" font-size="10.00">thrifts/Vector3.h</text>
</a>
</g>
</g>
<!-- Node9&#45;&gt;Node13 -->
<g id="edge17" class="edge"><title>Node9&#45;&gt;Node13</title>
<path fill="none" stroke="midnightblue" d="M1080.29,-168.368C1078.84,-150.617 1075.49,-109.666 1073.52,-85.5974"/>
<polygon fill="midnightblue" stroke="midnightblue" points="1077.01,-85.2727 1072.7,-75.5914 1070.03,-85.8436 1077.01,-85.2727"/>
</g>
<!-- Node14 -->
<g id="node14" class="node"><title>Node14</title>
<polygon fill="none" stroke="#bfbfbf" points="1171.5,-112.5 1171.5,-131.5 1262.5,-131.5 1262.5,-112.5 1171.5,-112.5"/>
<text text-anchor="middle" x="1217" y="-119.5" font-family="Helvetica,sans-Serif" font-size="10.00">yarp/sig/Vector.h</text>
</g>
<!-- Node9&#45;&gt;Node14 -->
<g id="edge18" class="edge"><title>Node9&#45;&gt;Node14</title>
<path fill="none" stroke="midnightblue" d="M1102.55,-168.444C1125.03,-159.517 1160.49,-145.439 1185.98,-135.317"/>
<polygon fill="midnightblue" stroke="midnightblue" points="1187.55,-138.46 1195.55,-131.516 1184.97,-131.954 1187.55,-138.46"/>
</g>
<!-- Node12&#45;&gt;Node10 -->
<g id="edge12" class="edge"><title>Node12&#45;&gt;Node10</title>
<path fill="none" stroke="midnightblue" d="M999.469,-112.368C992.141,-94.4563 975.15,-52.9233 965.342,-28.9482"/>
<polygon fill="midnightblue" stroke="midnightblue" points="968.54,-27.5217 961.515,-19.5914 962.062,-30.1721 968.54,-27.5217"/>
</g>
<!-- Node12&#45;&gt;Node11 -->
<g id="edge13" class="edge"><title>Node12&#45;&gt;Node11</title>
<path fill="none" stroke="midnightblue" d="M1003.55,-112.312C1004.73,-99.1535 1008.46,-73.817 1020,-56 1028.08,-43.5279 1040.77,-32.9176 1052.03,-25.1377"/>
<polygon fill="midnightblue" stroke="midnightblue" points="1054.17,-27.9187 1060.63,-19.5237 1050.35,-22.0557 1054.17,-27.9187"/>
</g>
<!-- Node12&#45;&gt;Node13 -->
<g id="edge14" class="edge"><title>Node12&#45;&gt;Node13</title>
<path fill="none" stroke="midnightblue" d="M1014.09,-112.324C1024.49,-104.185 1040.26,-91.8395 1052.72,-82.0874"/>
<polygon fill="midnightblue" stroke="midnightblue" points="1054.99,-84.7533 1060.71,-75.8339 1050.68,-79.2407 1054.99,-84.7533"/>
</g>
<!-- Node13&#45;&gt;Node10 -->
<g id="edge15" class="edge"><title>Node13&#45;&gt;Node10</title>
<path fill="none" stroke="midnightblue" d="M1053.94,-56.4435C1035.43,-47.6751 1006.42,-33.9355 985.145,-23.8579"/>
<polygon fill="midnightblue" stroke="midnightblue" points="986.515,-20.6343 975.979,-19.5164 983.518,-26.9604 986.515,-20.6343"/>
</g>
<!-- Node13&#45;&gt;Node11 -->
<g id="edge16" class="edge"><title>Node13&#45;&gt;Node11</title>
<path fill="none" stroke="midnightblue" d="M1072.66,-56.083C1073.18,-49.0059 1073.94,-38.8611 1074.59,-29.9865"/>
<polygon fill="midnightblue" stroke="midnightblue" points="1078.1,-29.9823 1075.35,-19.7511 1071.12,-29.4652 1078.1,-29.9823"/>
</g>
</g>
</svg>
