<?xml version="1.0" encoding="UTF-8" standalone="no"?>
<!DOCTYPE svg PUBLIC "-//W3C//DTD SVG 1.1//EN"
 "http://www.w3.org/Graphics/SVG/1.1/DTD/svg11.dtd">
<!-- Generated by graphviz version 2.36.0 (20140111.2315)
 -->
<!-- Title: HumanDynamicsEstimator Pages: 1 -->
<svg width="2237pt" height="358pt"
 viewBox="0.00 0.00 2237.00 358.00" xmlns="http://www.w3.org/2000/svg" xmlns:xlink="http://www.w3.org/1999/xlink">
<g id="graph0" class="graph" transform="scale(1 1) rotate(0) translate(4 354)">
<title>HumanDynamicsEstimator</title>
<!-- Node1 -->
<g id="node1" class="node"><title>Node1</title>
<polygon fill="#bfbfbf" stroke="black" points="1002.5,-0.5 1002.5,-123.5 1159.5,-123.5 1159.5,-0.5 1002.5,-0.5"/>
<text text-anchor="middle" x="1081" y="-111.5" font-family="Helvetica,sans-Serif" font-size="10.00">HumanDynamicsEstimator</text>
<polyline fill="none" stroke="black" points="1002.5,-104.5 1159.5,-104.5 "/>
<text text-anchor="middle" x="1081" y="-92.5" font-family="Helvetica,sans-Serif" font-size="10.00"> </text>
<polyline fill="none" stroke="black" points="1002.5,-85.5 1159.5,-85.5 "/>
<text text-anchor="start" x="1010.5" y="-73.5" font-family="Helvetica,sans-Serif" font-size="10.00">+ HumanDynamicsEstimator()</text>
<text text-anchor="start" x="1010.5" y="-62.5" font-family="Helvetica,sans-Serif" font-size="10.00">+ ~HumanDynamicsEstimator()</text>
<text text-anchor="start" x="1010.5" y="-51.5" font-family="Helvetica,sans-Serif" font-size="10.00">+ getPeriod()</text>
<text text-anchor="start" x="1010.5" y="-40.5" font-family="Helvetica,sans-Serif" font-size="10.00">+ configure()</text>
<text text-anchor="start" x="1010.5" y="-29.5" font-family="Helvetica,sans-Serif" font-size="10.00">+ updateModule()</text>
<text text-anchor="start" x="1010.5" y="-18.5" font-family="Helvetica,sans-Serif" font-size="10.00">+ close()</text>
<text text-anchor="start" x="1010.5" y="-7.5" font-family="Helvetica,sans-Serif" font-size="10.00">&#45; computeMaximumAPosteriori()</text>
</g>
<!-- Node2 -->
<g id="node2" class="node"><title>Node2</title>
<g id="a_node2"><a xlink:href="classyarp_1_1os_1_1_r_f_module.html" target="_top" xlink:title="{RFModule\n||}">
<polygon fill="none" stroke="black" points="0,-281.5 0,-338.5 62,-338.5 62,-281.5 0,-281.5"/>
<text text-anchor="middle" x="31" y="-326.5" font-family="Helvetica,sans-Serif" font-size="10.00">RFModule</text>
<polyline fill="none" stroke="black" points="0,-319.5 62,-319.5 "/>
<text text-anchor="middle" x="31" y="-307.5" font-family="Helvetica,sans-Serif" font-size="10.00"> </text>
<polyline fill="none" stroke="black" points="0,-300.5 62,-300.5 "/>
<text text-anchor="middle" x="31" y="-288.5" font-family="Helvetica,sans-Serif" font-size="10.00"> </text>
</a>
</g>
</g>
<!-- Node2&#45;&gt;Node1 -->
<g id="edge1" class="edge"><title>Node2&#45;&gt;Node1</title>
<path fill="none" stroke="midnightblue" d="M37.9331,-271.512C47.3617,-232.144 68.3373,-171.889 112,-142 184.774,-92.1836 784.579,-71.053 1002.37,-64.9733"/>
<polygon fill="none" stroke="midnightblue" points="34.5151,-270.759 35.726,-281.284 41.3431,-272.301 34.5151,-270.759"/>
</g>
<!-- Node3 -->
<g id="node3" class="node"><title>Node3</title>
<polygon fill="none" stroke="#bfbfbf" points="80.5,-281.5 80.5,-338.5 125.5,-338.5 125.5,-281.5 80.5,-281.5"/>
<text text-anchor="middle" x="103" y="-326.5" font-family="Helvetica,sans-Serif" font-size="10.00">double</text>
<polyline fill="none" stroke="#bfbfbf" points="80.5,-319.5 125.5,-319.5 "/>
<text text-anchor="middle" x="103" y="-307.5" font-family="Helvetica,sans-Serif" font-size="10.00"> </text>
<polyline fill="none" stroke="#bfbfbf" points="80.5,-300.5 125.5,-300.5 "/>
<text text-anchor="middle" x="103" y="-288.5" font-family="Helvetica,sans-Serif" font-size="10.00"> </text>
</g>
<!-- Node3&#45;&gt;Node1 -->
<g id="edge2" class="edge"><title>Node3&#45;&gt;Node1</title>
<path fill="none" stroke="#404040" d="M107.587,-281.336C115.546,-242.979 135.831,-174.681 183,-142 248.306,-96.7536 774.996,-73.5821 990.047,-65.9333"/>
<polygon fill="none" stroke="#404040" points="990.22,-65.9273 996.076,-61.7188 1002.21,-65.5053 996.357,-69.7138 990.22,-65.9273"/>
<text text-anchor="middle" x="206" y="-194.5" font-family="Helvetica,sans-Serif" font-size="10.00"> &#45;m_period</text>
</g>
<!-- Node4 -->
<g id="node4" class="node"><title>Node4</title>
<polygon fill="none" stroke="#bfbfbf" points="143.5,-276 143.5,-344 292.5,-344 292.5,-276 143.5,-276"/>
<text text-anchor="start" x="151.5" y="-332" font-family="Helvetica,sans-Serif" font-size="10.00">map&lt; std::string, BerdyOutput</text>
<text text-anchor="middle" x="218" y="-321" font-family="Helvetica,sans-Serif" font-size="10.00">RangeMap &gt;</text>
<polyline fill="none" stroke="#bfbfbf" points="143.5,-314 292.5,-314 "/>
<text text-anchor="middle" x="218" y="-302" font-family="Helvetica,sans-Serif" font-size="10.00"> </text>
<polyline fill="none" stroke="#bfbfbf" points="143.5,-295 292.5,-295 "/>
<text text-anchor="middle" x="218" y="-283" font-family="Helvetica,sans-Serif" font-size="10.00"> </text>
</g>
<!-- Node4&#45;&gt;Node1 -->
<g id="edge3" class="edge"><title>Node4&#45;&gt;Node1</title>
<path fill="none" stroke="#404040" d="M225.487,-275.675C236.168,-236.584 259.821,-173.168 306,-142 361.697,-104.408 797.988,-77.5718 990.38,-67.4471"/>
<polygon fill="none" stroke="#404040" points="990.432,-67.4444 996.215,-63.137 1002.42,-66.8188 996.632,-71.1262 990.432,-67.4444"/>
<text text-anchor="middle" x="336" y="-200" font-family="Helvetica,sans-Serif" font-size="10.00"> +outputLinks</text>
<text text-anchor="middle" x="336" y="-189" font-family="Helvetica,sans-Serif" font-size="10.00">+outputJoints</text>
</g>
<!-- Node5 -->
<g id="node5" class="node"><title>Node5</title>
<polygon fill="none" stroke="#bfbfbf" points="310.5,-270.5 310.5,-349.5 453.5,-349.5 453.5,-270.5 310.5,-270.5"/>
<text text-anchor="start" x="318.5" y="-337.5" font-family="Helvetica,sans-Serif" font-size="10.00">unordered_map&lt; SensorKey,</text>
<text text-anchor="start" x="318.5" y="-326.5" font-family="Helvetica,sans-Serif" font-size="10.00"> iDynTree::IndexRange,</text>
<text text-anchor="middle" x="382" y="-315.5" font-family="Helvetica,sans-Serif" font-size="10.00"> SensorKeyHash &gt;</text>
<polyline fill="none" stroke="#bfbfbf" points="310.5,-308.5 453.5,-308.5 "/>
<text text-anchor="middle" x="382" y="-296.5" font-family="Helvetica,sans-Serif" font-size="10.00"> </text>
<polyline fill="none" stroke="#bfbfbf" points="310.5,-289.5 453.5,-289.5 "/>
<text text-anchor="middle" x="382" y="-277.5" font-family="Helvetica,sans-Serif" font-size="10.00"> </text>
</g>
<!-- Node5&#45;&gt;Node1 -->
<g id="edge4" class="edge"><title>Node5&#45;&gt;Node1</title>
<path fill="none" stroke="#404040" d="M373.03,-270.23C366.756,-232.247 364.487,-175.35 397,-142 437.715,-100.237 813.893,-76.2366 990.379,-67.1881"/>
<polygon fill="none" stroke="#404040" points="990.493,-67.1824 996.283,-62.884 1002.48,-66.5752 996.688,-70.8737 990.493,-67.1824"/>
<text text-anchor="middle" x="444.5" y="-194.5" font-family="Helvetica,sans-Serif" font-size="10.00"> +inputMeasurements</text>
</g>
<!-- Node6 -->
<g id="node6" class="node"><title>Node6</title>
<polygon fill="none" stroke="#bfbfbf" points="472,-281.5 472,-338.5 522,-338.5 522,-281.5 472,-281.5"/>
<text text-anchor="middle" x="497" y="-326.5" font-family="Helvetica,sans-Serif" font-size="10.00">Vector3</text>
<polyline fill="none" stroke="#bfbfbf" points="472,-319.5 522,-319.5 "/>
<text text-anchor="middle" x="497" y="-307.5" font-family="Helvetica,sans-Serif" font-size="10.00"> </text>
<polyline fill="none" stroke="#bfbfbf" points="472,-300.5 522,-300.5 "/>
<text text-anchor="middle" x="497" y="-288.5" font-family="Helvetica,sans-Serif" font-size="10.00"> </text>
</g>
<!-- Node6&#45;&gt;Node1 -->
<g id="edge5" class="edge"><title>Node6&#45;&gt;Node1</title>
<path fill="none" stroke="#404040" d="M495.128,-281.254C494.256,-243.758 498.881,-177.524 538,-142 602.65,-83.2922 853.209,-68.1549 990.229,-64.2915"/>
<polygon fill="none" stroke="#404040" points="990.321,-64.2892 996.213,-60.1318 1002.32,-63.9716 996.425,-68.129 990.321,-64.2892"/>
<text text-anchor="middle" x="562.5" y="-194.5" font-family="Helvetica,sans-Serif" font-size="10.00"> &#45;m_gravity</text>
</g>
<!-- Node7 -->
<g id="node7" class="node"><title>Node7</title>
<polygon fill="none" stroke="#bfbfbf" points="540,-276 540,-344 698,-344 698,-276 540,-276"/>
<text text-anchor="start" x="548" y="-332" font-family="Helvetica,sans-Serif" font-size="10.00">SparseLU&lt; Eigen::SparseMatrix</text>
<text text-anchor="middle" x="619" y="-321" font-family="Helvetica,sans-Serif" font-size="10.00">&lt; double, Eigen::RowMajor &gt; &gt;</text>
<polyline fill="none" stroke="#bfbfbf" points="540,-314 698,-314 "/>
<text text-anchor="middle" x="619" y="-302" font-family="Helvetica,sans-Serif" font-size="10.00"> </text>
<polyline fill="none" stroke="#bfbfbf" points="540,-295 698,-295 "/>
<text text-anchor="middle" x="619" y="-283" font-family="Helvetica,sans-Serif" font-size="10.00"> </text>
</g>
<!-- Node7&#45;&gt;Node1 -->
<g id="edge6" class="edge"><title>Node7&#45;&gt;Node1</title>
<path fill="none" stroke="#404040" d="M605.136,-275.902C592.051,-238.804 578.677,-179.014 610,-142 657.704,-85.6282 867.068,-69.4566 990.02,-64.8343"/>
<polygon fill="none" stroke="#404040" points="990.379,-64.8217 996.234,-60.6122 1002.37,-64.3977 996.517,-68.6072 990.379,-64.8217"/>
<text text-anchor="start" x="610" y="-211" font-family="Helvetica,sans-Serif" font-size="10.00"> +covarianceDynamicsAPosteriori</text>
<text text-anchor="middle" x="685.5" y="-200" font-family="Helvetica,sans-Serif" font-size="10.00">InverseDecomposition</text>
<text text-anchor="start" x="610" y="-189" font-family="Helvetica,sans-Serif" font-size="10.00">+covarianceDynamicsPriorInverse</text>
<text text-anchor="middle" x="685.5" y="-178" font-family="Helvetica,sans-Serif" font-size="10.00">Decomposition</text>
</g>
<!-- Node8 -->
<g id="node8" class="node"><title>Node8</title>
<polygon fill="none" stroke="#bfbfbf" points="716.5,-281.5 716.5,-338.5 825.5,-338.5 825.5,-281.5 716.5,-281.5"/>
<text text-anchor="middle" x="771" y="-326.5" font-family="Helvetica,sans-Serif" font-size="10.00">JointPosDoubleArray</text>
<polyline fill="none" stroke="#bfbfbf" points="716.5,-319.5 825.5,-319.5 "/>
<text text-anchor="middle" x="771" y="-307.5" font-family="Helvetica,sans-Serif" font-size="10.00"> </text>
<polyline fill="none" stroke="#bfbfbf" points="716.5,-300.5 825.5,-300.5 "/>
<text text-anchor="middle" x="771" y="-288.5" font-family="Helvetica,sans-Serif" font-size="10.00"> </text>
</g>
<!-- Node8&#45;&gt;Node1 -->
<g id="edge7" class="edge"><title>Node8&#45;&gt;Node1</title>
<path fill="none" stroke="#404040" d="M767.981,-281.409C764.027,-239.585 759.398,-162.8 776,-142 802.655,-108.606 910.369,-86.5485 990.278,-74.428"/>
<polygon fill="none" stroke="#404040" points="990.479,-74.3983 995.828,-69.5622 1002.35,-72.6398 997.001,-77.4759 990.479,-74.3983"/>
<text text-anchor="middle" x="826.5" y="-194.5" font-family="Helvetica,sans-Serif" font-size="10.00"> &#45;m_jointsConfiguration</text>
</g>
<!-- Node9 -->
<g id="node9" class="node"><title>Node9</title>
<polygon fill="none" stroke="#bfbfbf" points="843.5,-276 843.5,-344 958.5,-344 958.5,-276 843.5,-276"/>
<text text-anchor="start" x="851.5" y="-332" font-family="Helvetica,sans-Serif" font-size="10.00">SparseMatrix&lt; double,</text>
<text text-anchor="middle" x="901" y="-321" font-family="Helvetica,sans-Serif" font-size="10.00"> Eigen::RowMajor &gt;</text>
<polyline fill="none" stroke="#bfbfbf" points="843.5,-314 958.5,-314 "/>
<text text-anchor="middle" x="901" y="-302" font-family="Helvetica,sans-Serif" font-size="10.00"> </text>
<polyline fill="none" stroke="#bfbfbf" points="843.5,-295 958.5,-295 "/>
<text text-anchor="middle" x="901" y="-283" font-family="Helvetica,sans-Serif" font-size="10.00"> </text>
</g>
<!-- Node9&#45;&gt;Node1 -->
<g id="edge8" class="edge"><title>Node9&#45;&gt;Node1</title>
<path fill="none" stroke="#404040" d="M890.168,-275.852C880.558,-239.798 871.714,-181.979 898,-142 918.838,-110.307 955.38,-91.2708 990.359,-79.8634"/>
<polygon fill="none" stroke="#404040" points="990.655,-79.7731 995.231,-74.1998 1002.14,-76.28 997.56,-81.8533 990.655,-79.7731"/>
<text text-anchor="start" x="898" y="-211" font-family="Helvetica,sans-Serif" font-size="10.00"> +covarianceDynamicsPrior</text>
<text text-anchor="middle" x="976.5" y="-200" font-family="Helvetica,sans-Serif" font-size="10.00">Inverse</text>
<text text-anchor="start" x="898" y="-189" font-family="Helvetica,sans-Serif" font-size="10.00">&#45;m_covarianceDynamicsAPosteriori</text>
<text text-anchor="middle" x="976.5" y="-178" font-family="Helvetica,sans-Serif" font-size="10.00">Inverse</text>
</g>
<!-- Node10 -->
<g id="node10" class="node"><title>Node10</title>
<g id="a_node10"><a xlink:href="classyarp_1_1os_1_1_buffered_port.html" target="_top" xlink:title="{yarp::os::BufferedPort\l\&lt; human::HumanDynamics \&gt;\n||}">
<polygon fill="none" stroke="black" points="977,-276 977,-344 1123,-344 1123,-276 977,-276"/>
<text text-anchor="start" x="985" y="-332" font-family="Helvetica,sans-Serif" font-size="10.00">yarp::os::BufferedPort</text>
<text text-anchor="middle" x="1050" y="-321" font-family="Helvetica,sans-Serif" font-size="10.00">&lt; human::HumanDynamics &gt;</text>
<polyline fill="none" stroke="black" points="977,-314 1123,-314 "/>
<text text-anchor="middle" x="1050" y="-302" font-family="Helvetica,sans-Serif" font-size="10.00"> </text>
<polyline fill="none" stroke="black" points="977,-295 1123,-295 "/>
<text text-anchor="middle" x="1050" y="-283" font-family="Helvetica,sans-Serif" font-size="10.00"> </text>
</a>
</g>
</g>
<!-- Node10&#45;&gt;Node1 -->
<g id="edge9" class="edge"><title>Node10&#45;&gt;Node1</title>
<path fill="none" stroke="#404040" d="M1055.46,-275.879C1056.69,-268.058 1057.94,-259.742 1059,-252 1064.26,-213.648 1069.31,-170.806 1073.25,-135.619"/>
<polygon fill="none" stroke="#404040" points="1073.27,-135.44 1069.95,-129.035 1074.59,-123.513 1077.9,-129.917 1073.27,-135.44"/>
<text text-anchor="middle" x="1105.5" y="-194.5" font-family="Helvetica,sans-Serif" font-size="10.00"> &#45;m_outputPort</text>
</g>
<!-- Node11 -->
<g id="node11" class="node"><title>Node11</title>
<polygon fill="none" stroke="#bfbfbf" points="1141,-281.5 1141,-338.5 1259,-338.5 1259,-281.5 1141,-281.5"/>
<text text-anchor="middle" x="1200" y="-326.5" font-family="Helvetica,sans-Serif" font-size="10.00">JointDOFsDoubleArray</text>
<polyline fill="none" stroke="#bfbfbf" points="1141,-319.5 1259,-319.5 "/>
<text text-anchor="middle" x="1200" y="-307.5" font-family="Helvetica,sans-Serif" font-size="10.00"> </text>
<polyline fill="none" stroke="#bfbfbf" points="1141,-300.5 1259,-300.5 "/>
<text text-anchor="middle" x="1200" y="-288.5" font-family="Helvetica,sans-Serif" font-size="10.00"> </text>
</g>
<!-- Node11&#45;&gt;Node1 -->
<g id="edge10" class="edge"><title>Node11&#45;&gt;Node1</title>
<path fill="none" stroke="#404040" d="M1183.85,-281.49C1178.92,-272.323 1173.81,-261.917 1170,-252 1151.9,-204.909 1164.1,-187.351 1142,-142 1140.67,-139.274 1139.24,-136.551 1137.73,-133.845"/>
<polygon fill="none" stroke="#404040" points="1137.69,-133.794 1131.18,-130.712 1131.51,-123.509 1138.03,-126.591 1137.69,-133.794"/>
<text text-anchor="middle" x="1209.5" y="-194.5" font-family="Helvetica,sans-Serif" font-size="10.00"> &#45;m_jointsVelocity</text>
</g>
<!-- Node12 -->
<g id="node12" class="node"><title>Node12</title>
<polygon fill="none" stroke="#bfbfbf" points="1277,-281.5 1277,-338.5 1351,-338.5 1351,-281.5 1277,-281.5"/>
<text text-anchor="middle" x="1314" y="-326.5" font-family="Helvetica,sans-Serif" font-size="10.00">SparseMatrix</text>
<polyline fill="none" stroke="#bfbfbf" points="1277,-319.5 1351,-319.5 "/>
<text text-anchor="middle" x="1314" y="-307.5" font-family="Helvetica,sans-Serif" font-size="10.00"> </text>
<polyline fill="none" stroke="#bfbfbf" points="1277,-300.5 1351,-300.5 "/>
<text text-anchor="middle" x="1314" y="-288.5" font-family="Helvetica,sans-Serif" font-size="10.00"> </text>
</g>
<!-- Node12&#45;&gt;Node1 -->
<g id="edge11" class="edge"><title>Node12&#45;&gt;Node1</title>
<path fill="none" stroke="#404040" d="M1289.84,-281.212C1283.19,-272.365 1276.57,-262.211 1272,-252 1251.61,-206.406 1279.96,-181.19 1249,-142 1229.33,-117.107 1199.95,-99.677 1171.23,-87.6516"/>
<polygon fill="none" stroke="#404040" points="1171.01,-87.5643 1163.96,-89.0726 1159.86,-83.1435 1166.91,-81.6352 1171.01,-87.5643"/>
<text text-anchor="middle" x="1347" y="-233" font-family="Helvetica,sans-Serif" font-size="10.00"> &#45;m_dynamicsConstraintsMatrix</text>
<text text-anchor="start" x="1272" y="-222" font-family="Helvetica,sans-Serif" font-size="10.00">&#45;m_priorDynamicsConstraints</text>
<text text-anchor="middle" x="1347" y="-211" font-family="Helvetica,sans-Serif" font-size="10.00">CovarianceInverse</text>
<text text-anchor="start" x="1272" y="-200" font-family="Helvetica,sans-Serif" font-size="10.00">&#45;m_priorMeasurementsCovariance</text>
<text text-anchor="middle" x="1347" y="-189" font-family="Helvetica,sans-Serif" font-size="10.00">Inverse</text>
<text text-anchor="start" x="1272" y="-178" font-family="Helvetica,sans-Serif" font-size="10.00">&#45;m_priorDynamicsRegularization</text>
<text text-anchor="middle" x="1347" y="-167" font-family="Helvetica,sans-Serif" font-size="10.00">CovarianceInverse</text>
<text text-anchor="middle" x="1347" y="-156" font-family="Helvetica,sans-Serif" font-size="10.00">&#45;m_measurementsMatrix</text>
</g>
<!-- Node13 -->
<g id="node13" class="node"><title>Node13</title>
<polygon fill="none" stroke="#bfbfbf" points="1369.5,-281.5 1369.5,-338.5 1440.5,-338.5 1440.5,-281.5 1369.5,-281.5"/>
<text text-anchor="middle" x="1405" y="-326.5" font-family="Helvetica,sans-Serif" font-size="10.00">BerdyHelper</text>
<polyline fill="none" stroke="#bfbfbf" points="1369.5,-319.5 1440.5,-319.5 "/>
<text text-anchor="middle" x="1405" y="-307.5" font-family="Helvetica,sans-Serif" font-size="10.00"> </text>
<polyline fill="none" stroke="#bfbfbf" points="1369.5,-300.5 1440.5,-300.5 "/>
<text text-anchor="middle" x="1405" y="-288.5" font-family="Helvetica,sans-Serif" font-size="10.00"> </text>
</g>
<!-- Node13&#45;&gt;Node1 -->
<g id="edge12" class="edge"><title>Node13&#45;&gt;Node1</title>
<path fill="none" stroke="#404040" d="M1418.56,-281.414C1434.14,-245.304 1453.73,-181.925 1422,-142 1391.27,-103.34 1262.11,-81.9262 1171.89,-71.4428"/>
<polygon fill="none" stroke="#404040" points="1171.64,-71.4139 1165.23,-74.7146 1159.71,-70.0659 1166.12,-66.7652 1171.64,-71.4139"/>
<text text-anchor="middle" x="1461" y="-194.5" font-family="Helvetica,sans-Serif" font-size="10.00"> &#45;m_berdy</text>
</g>
<!-- Node14 -->
<g id="node14" class="node"><title>Node14</title>
<g id="a_node14"><a xlink:href="classyarp_1_1os_1_1_buffered_port.html" target="_top" xlink:title="{yarp::os::BufferedPort\l\&lt; human::HumanForces \&gt;\n||}">
<polygon fill="none" stroke="black" points="1458.5,-276 1458.5,-344 1589.5,-344 1589.5,-276 1458.5,-276"/>
<text text-anchor="start" x="1466.5" y="-332" font-family="Helvetica,sans-Serif" font-size="10.00">yarp::os::BufferedPort</text>
<text text-anchor="middle" x="1524" y="-321" font-family="Helvetica,sans-Serif" font-size="10.00">&lt; human::HumanForces &gt;</text>
<polyline fill="none" stroke="black" points="1458.5,-314 1589.5,-314 "/>
<text text-anchor="middle" x="1524" y="-302" font-family="Helvetica,sans-Serif" font-size="10.00"> </text>
<polyline fill="none" stroke="black" points="1458.5,-295 1589.5,-295 "/>
<text text-anchor="middle" x="1524" y="-283" font-family="Helvetica,sans-Serif" font-size="10.00"> </text>
</a>
</g>
</g>
<!-- Node14&#45;&gt;Node1 -->
<g id="edge13" class="edge"><title>Node14&#45;&gt;Node1</title>
<path fill="none" stroke="#404040" d="M1516.9,-275.899C1506.5,-227.55 1488.21,-143.182 1487,-142 1443.16,-99.2768 1277.62,-78.4198 1171.94,-69.2534"/>
<polygon fill="none" stroke="#404040" points="1171.64,-69.228 1165.32,-72.7093 1159.68,-68.219 1166,-64.7376 1171.64,-69.228"/>
<text text-anchor="middle" x="1560.5" y="-194.5" font-family="Helvetica,sans-Serif" font-size="10.00"> &#45;m_humanForcesPort</text>
</g>
<!-- Node15 -->
<g id="node15" class="node"><title>Node15</title>
<g id="a_node15"><a xlink:href="classyarp_1_1os_1_1_buffered_port.html" target="_top" xlink:title="{yarp::os::BufferedPort\l\&lt; human::HumanState \&gt;\n||}">
<polygon fill="none" stroke="black" points="1607.5,-276 1607.5,-344 1732.5,-344 1732.5,-276 1607.5,-276"/>
<text text-anchor="start" x="1615.5" y="-332" font-family="Helvetica,sans-Serif" font-size="10.00">yarp::os::BufferedPort</text>
<text text-anchor="middle" x="1670" y="-321" font-family="Helvetica,sans-Serif" font-size="10.00">&lt; human::HumanState &gt;</text>
<polyline fill="none" stroke="black" points="1607.5,-314 1732.5,-314 "/>
<text text-anchor="middle" x="1670" y="-302" font-family="Helvetica,sans-Serif" font-size="10.00"> </text>
<polyline fill="none" stroke="black" points="1607.5,-295 1732.5,-295 "/>
<text text-anchor="middle" x="1670" y="-283" font-family="Helvetica,sans-Serif" font-size="10.00"> </text>
</a>
</g>
</g>
<!-- Node15&#45;&gt;Node1 -->
<g id="edge14" class="edge"><title>Node15&#45;&gt;Node1</title>
<path fill="none" stroke="#404040" d="M1644.85,-275.842C1640.01,-268.303 1635.4,-260.116 1632,-252 1612.69,-205.94 1645.32,-176.286 1609,-142 1547.56,-84.003 1305.86,-68.5456 1171.79,-64.4524"/>
<polygon fill="none" stroke="#404040" points="1171.56,-64.4456 1165.44,-68.2718 1159.56,-64.1013 1165.67,-60.2751 1171.56,-64.4456"/>
<text text-anchor="middle" x="1705" y="-194.5" font-family="Helvetica,sans-Serif" font-size="10.00"> &#45;m_humanJointConfigurationPort</text>
</g>
<!-- Node16 -->
<g id="node16" class="node"><title>Node16</title>
<polygon fill="none" stroke="#bfbfbf" points="1850.5,-281 1850.5,-339 1879.5,-339 1879.5,-281 1850.5,-281"/>
<polyline fill="none" stroke="#bfbfbf" points="1850.5,-319 1879.5,-319 "/>
<text text-anchor="middle" x="1865" y="-307" font-family="Helvetica,sans-Serif" font-size="10.00"> </text>
<polyline fill="none" stroke="#bfbfbf" points="1850.5,-300 1879.5,-300 "/>
<text text-anchor="middle" x="1865" y="-288" font-family="Helvetica,sans-Serif" font-size="10.00"> </text>
</g>
<!-- Node16&#45;&gt;Node1 -->
<g id="edge15" class="edge"><title>Node16&#45;&gt;Node1</title>
<path fill="none" stroke="#404040" d="M1850.33,-300.027C1835.5,-290.146 1813.07,-272.862 1801,-252 1775.98,-208.772 1814.93,-175.633 1778,-142 1733.99,-101.913 1350.59,-76.9753 1171.92,-67.431"/>
<polygon fill="none" stroke="#404040" points="1171.66,-67.4173 1165.46,-71.095 1159.68,-66.7839 1165.88,-63.1062 1171.66,-67.4173"/>
<text text-anchor="middle" x="1854.5" y="-194.5" font-family="Helvetica,sans-Serif" font-size="10.00"> &#45;m_inputOutputMapping</text>
</g>
<!-- Node16&#45;&gt;Node1 -->
<g id="edge16" class="edge"><title>Node16&#45;&gt;Node1</title>
<path fill="none" stroke="#404040" d="M1879.66,-295.087C1889.79,-284.403 1902.41,-268.691 1908,-252 1923.52,-205.642 1940.88,-178.176 1908,-142 1859.22,-88.3331 1376.56,-70.2296 1171.93,-64.9352"/>
<polygon fill="none" stroke="#404040" points="1171.74,-64.9305 1165.64,-68.7772 1159.75,-64.6265 1165.85,-60.7798 1171.74,-64.9305"/>
<text text-anchor="middle" x="1986" y="-194.5" font-family="Helvetica,sans-Serif" font-size="10.00"> &#45;m_intermediateQuantities</text>
</g>
<!-- Node17 -->
<g id="node17" class="node"><title>Node17</title>
<polygon fill="none" stroke="#bfbfbf" points="2029.5,-281.5 2029.5,-338.5 2112.5,-338.5 2112.5,-281.5 2029.5,-281.5"/>
<text text-anchor="middle" x="2071" y="-326.5" font-family="Helvetica,sans-Serif" font-size="10.00">VectorDynSize</text>
<polyline fill="none" stroke="#bfbfbf" points="2029.5,-319.5 2112.5,-319.5 "/>
<text text-anchor="middle" x="2071" y="-307.5" font-family="Helvetica,sans-Serif" font-size="10.00"> </text>
<polyline fill="none" stroke="#bfbfbf" points="2029.5,-300.5 2112.5,-300.5 "/>
<text text-anchor="middle" x="2071" y="-288.5" font-family="Helvetica,sans-Serif" font-size="10.00"> </text>
</g>
<!-- Node17&#45;&gt;Node1 -->
<g id="edge17" class="edge"><title>Node17&#45;&gt;Node1</title>
<path fill="none" stroke="#404040" d="M2076.72,-281.299C2082.66,-243.856 2086.5,-177.683 2049,-142 1986.26,-82.2915 1400.65,-67.5378 1171.92,-64.0398"/>
<polygon fill="none" stroke="#404040" points="1171.66,-64.036 1165.6,-67.9465 1159.66,-63.8579 1165.72,-59.9474 1171.66,-64.036"/>
<text text-anchor="start" x="2080" y="-244" font-family="Helvetica,sans-Serif" font-size="10.00"> +expectedDynamicsAPosteriori</text>
<text text-anchor="middle" x="2154.5" y="-233" font-family="Helvetica,sans-Serif" font-size="10.00">RHS</text>
<text text-anchor="middle" x="2154.5" y="-222" font-family="Helvetica,sans-Serif" font-size="10.00">&#45;m_measurements</text>
<text text-anchor="start" x="2080" y="-211" font-family="Helvetica,sans-Serif" font-size="10.00">&#45;m_priorDynamicsRegularization</text>
<text text-anchor="middle" x="2154.5" y="-200" font-family="Helvetica,sans-Serif" font-size="10.00">ExpectedValue</text>
<text text-anchor="middle" x="2154.5" y="-189" font-family="Helvetica,sans-Serif" font-size="10.00">&#45;m_expectedDynamicsAPosteriori</text>
<text text-anchor="middle" x="2154.5" y="-178" font-family="Helvetica,sans-Serif" font-size="10.00">&#45;m_dynamicsConstraintsBias</text>
<text text-anchor="middle" x="2154.5" y="-167" font-family="Helvetica,sans-Serif" font-size="10.00">+expectedDynamicsPriorRHS</text>
<text text-anchor="middle" x="2154.5" y="-156" font-family="Helvetica,sans-Serif" font-size="10.00">+expectedDynamicsPrior</text>
<text text-anchor="middle" x="2154.5" y="-145" font-family="Helvetica,sans-Serif" font-size="10.00">&#45;m_measurementsBias</text>
</g>
</g>
</svg>
